<?xml version="1.0" encoding="UTF-8" standalone="no"?>
<!-- Created with Inkscape (http://www.inkscape.org/) -->

<svg
   width="8.29531mm"
   height="8.2938175mm"
   viewBox="0 0 8.29531 8.2938175"
   version="1.1"
   id="svg1"
   xmlns="http://www.w3.org/2000/svg"
   xmlns:svg="http://www.w3.org/2000/svg">
  <defs
     id="defs1">
    <clipPath
       clipPathUnits="userSpaceOnUse"
       id="clipPath43">
      <path
         d="M 0,373.445 H 491.969 V 0 H 0 Z"
         transform="translate(-375.01611,-252.41931)"
         id="path43" />
    </clipPath>
    <clipPath
       clipPathUnits="userSpaceOnUse"
       id="clipPath27">
      <path
         d="M 0,373.445 H 491.969 V 0 H 0 Z"
         transform="translate(-399.39011,-267.74741)"
         id="path27" />
    </clipPath>
    <clipPath
       clipPathUnits="userSpaceOnUse"
       id="clipPath45">
      <path
         d="M 0,373.445 H 491.969 V 0 H 0 Z"
         transform="translate(-405.28611,-254.73321)"
         id="path45" />
    </clipPath>
    <clipPath
       clipPathUnits="userSpaceOnUse"
       id="clipPath47">
      <path
         d="M 0,373.445 H 491.969 V 0 H 0 Z"
         id="path47" />
    </clipPath>
    <clipPath
       clipPathUnits="userSpaceOnUse"
       id="clipPath49">
      <path
         d="M 0,373.445 H 491.969 V 0 H 0 Z"
         transform="translate(-395.55421,-261.51011)"
         id="path49" />
    </clipPath>
    <clipPath
       clipPathUnits="userSpaceOnUse"
       id="clipPath29">
      <path
         d="M 0,373.445 H 491.969 V 0 H 0 Z"
         transform="translate(-418.84281,-256.32401)"
         id="path29" />
    </clipPath>
    <clipPath
       clipPathUnits="userSpaceOnUse"
       id="clipPath31">
      <path
         d="M 0,373.445 H 491.969 V 0 H 0 Z"
         transform="translate(-418.85401,-255.34211)"
         id="path31" />
    </clipPath>
    <clipPath
       clipPathUnits="userSpaceOnUse"
       id="clipPath33">
      <path
         d="M 0,373.445 H 491.969 V 0 H 0 Z"
         transform="translate(-418.85401,-256.69071)"
         id="path33" />
    </clipPath>
    <clipPath
       clipPathUnits="userSpaceOnUse"
       id="clipPath35">
      <path
         d="M 0,373.445 H 491.969 V 0 H 0 Z"
         transform="translate(-430.61571,-258.3807)"
         id="path35" />
    </clipPath>
    <clipPath
       clipPathUnits="userSpaceOnUse"
       id="clipPath37">
      <path
         d="M 0,373.445 H 491.969 V 0 H 0 Z"
         transform="translate(-434.43951,-258.95681)"
         id="path37" />
    </clipPath>
    <clipPath
       clipPathUnits="userSpaceOnUse"
       id="clipPath39">
      <path
         d="M 0,373.445 H 491.969 V 0 H 0 Z"
         transform="translate(-437.73491,-253.03991)"
         id="path39" />
    </clipPath>
  </defs>
  <g
     id="layer1"
     transform="translate(-110.33125,-184.67917)">
    <g
       id="g1"
       transform="translate(-11.6471,-9.7893921)">
      <path
         id="path28"
         d="m 0,0 c -0.003,-0.111 -0.017,-0.22 -0.017,-0.332 0,-0.13 0.016,-0.257 0.019,-0.387 C -0.005,-0.455 -0.005,-0.203 0,0"
         style="fill:#1839d4;fill-opacity:1;fill-rule:nonzero;stroke:none"
         transform="matrix(0.35277776,0,0,-0.35277776,121.97891,198.49884)"
         clip-path="url(#clipPath29)" />
      <path
         id="path30"
         d="M 0,0 C 0.001,0 0.003,0 0.005,0 0,0.088 -0.006,0.175 -0.009,0.263 -0.006,0.175 -0.005,0.085 0,0"
         style="fill:#1839d4;fill-opacity:1;fill-rule:nonzero;stroke:none"
         transform="matrix(0.35277776,0,0,-0.35277776,121.98286,198.84524)"
         clip-path="url(#clipPath31)" />
      <path
         id="path32"
         d="M 0,0 C 0,0 -0.007,-0.156 -0.011,-0.367 -0.008,-0.244 0,-0.122 0.007,0 Z"
         style="fill:#1839d4;fill-opacity:1;fill-rule:nonzero;stroke:none"
         transform="matrix(0.35277776,0,0,-0.35277776,121.98286,198.36948)"
         clip-path="url(#clipPath33)" />
      <path
         id="path34"
         d="m 0,0 c -1.318,0 -2.387,-1.068 -2.387,-2.387 0,-1.319 1.069,-2.388 2.387,-2.388 1.319,0 2.387,1.069 2.387,2.388 C 2.387,-1.068 1.319,0 0,0"
         style="fill:#001f60;fill-opacity:1;fill-rule:nonzero;stroke:none"
         transform="matrix(0.35277776,0,0,-0.35277776,126.13213,197.77329)"
         clip-path="url(#clipPath35)" />
      <path
         id="path36"
         d="m 0,0 c -0.474,0 -0.859,0.385 -0.859,0.859 0,0.474 0.385,0.859 0.859,0.859 0.475,0 0.859,-0.385 0.859,-0.859 C 0.859,0.385 0.475,0 0,0 m -3.823,-6.641 c -2.032,0 -3.679,1.647 -3.679,3.677 0,2.032 1.647,3.679 3.679,3.679 2.03,0 3.677,-1.647 3.677,-3.679 0,-2.03 -1.647,-3.677 -3.677,-3.677 M 1.76,1.261 C 1.63,1.596 1.475,1.833 1.224,2.085 0.974,2.335 0.735,2.49 0.401,2.621 0.148,2.718 -0.23,2.834 -0.929,2.866 -1.685,2.901 -1.911,2.908 -3.823,2.908 -5.735,2.908 -5.963,2.901 -6.718,2.866 -7.416,2.834 -7.795,2.718 -8.048,2.621 -8.383,2.49 -8.622,2.335 -8.872,2.085 -9.123,1.833 -9.277,1.596 -9.408,1.261 -9.506,1.008 -9.622,0.628 -9.653,-0.07 c -0.035,-0.754 -0.042,-0.982 -0.042,-2.894 0,-1.912 0.007,-2.138 0.042,-2.894 0.031,-0.699 0.147,-1.077 0.245,-1.33 0.131,-0.334 0.285,-0.573 0.536,-0.823 0.25,-0.251 0.489,-0.407 0.824,-0.536 0.253,-0.098 0.632,-0.216 1.33,-0.247 0.755,-0.035 0.983,-0.042 2.895,-0.042 1.912,0 2.138,0.007 2.894,0.042 0.699,0.031 1.077,0.149 1.33,0.247 0.334,0.129 0.573,0.285 0.823,0.536 0.251,0.25 0.406,0.489 0.536,0.823 0.098,0.253 0.216,0.631 0.247,1.33 0.035,0.756 0.041,0.982 0.041,2.894 0,1.912 -0.006,2.14 -0.041,2.894 C 1.976,0.628 1.858,1.008 1.76,1.261"
         style="fill:#001f60;fill-opacity:1;fill-rule:nonzero;stroke:none"
         transform="matrix(0.35277776,0,0,-0.35277776,127.48108,197.57005)"
         clip-path="url(#clipPath37)" />
      <path
         id="path38"
         d="m 0,0 c -0.035,-0.763 -0.156,-1.284 -0.332,-1.738 -0.184,-0.471 -0.429,-0.871 -0.826,-1.269 -0.399,-0.398 -0.798,-0.643 -1.268,-0.826 -0.457,-0.178 -0.977,-0.298 -1.741,-0.334 -0.763,-0.034 -1.006,-0.042 -2.952,-0.042 -1.945,0 -2.189,0.008 -2.954,0.042 -0.761,0.036 -1.282,0.156 -1.738,0.334 -0.471,0.183 -0.871,0.428 -1.269,0.826 -0.397,0.398 -0.642,0.798 -0.826,1.269 -0.176,0.454 -0.297,0.975 -0.332,1.738 -0.034,0.765 -0.043,1.009 -0.043,2.953 0,1.945 0.009,2.189 0.043,2.954 0.035,0.761 0.156,1.282 0.332,1.738 0.184,0.471 0.429,0.871 0.826,1.269 0.398,0.398 0.798,0.644 1.269,0.826 0.456,0.177 0.977,0.299 1.738,0.333 0.765,0.035 1.009,0.043 2.954,0.043 1.946,0 2.189,-0.008 2.952,-0.043 0.764,-0.034 1.284,-0.156 1.741,-0.333 0.47,-0.182 0.869,-0.428 1.268,-0.826 C -0.761,8.516 -0.516,8.116 -0.332,7.645 -0.156,7.189 -0.035,6.668 0,5.907 0.035,5.142 0.043,4.898 0.043,2.953 0.043,1.009 0.035,0.765 0,0 m -7.119,14.708 c -6.492,0 -11.755,-5.264 -11.755,-11.755 0,-6.491 5.263,-11.754 11.755,-11.754 6.492,0 11.755,5.263 11.755,11.754 0,6.491 -5.263,11.755 -11.755,11.755"
         style="fill:#001f60;fill-opacity:1;fill-rule:nonzero;stroke:none"
         transform="matrix(0.35277776,0,0,-0.35277776,128.64362,199.6574)"
         clip-path="url(#clipPath39)" />
    </g>
  </g>
</svg>
