<?xml version="1.0" encoding="UTF-8" standalone="no"?>
<!-- Created with Inkscape (http://www.inkscape.org/) -->

<svg
   width="8.29531mm"
   height="8.2938175mm"
   viewBox="0 0 8.29531 8.2938175"
   version="1.1"
   id="svg1"
   xmlns="http://www.w3.org/2000/svg"
   xmlns:svg="http://www.w3.org/2000/svg">
  <defs
     id="defs1">
    <clipPath
       clipPathUnits="userSpaceOnUse"
       id="clipPath43">
      <path
         d="M 0,373.445 H 491.969 V 0 H 0 Z"
         transform="translate(-375.01611,-252.41931)"
         id="path43" />
    </clipPath>
    <clipPath
       clipPathUnits="userSpaceOnUse"
       id="clipPath27">
      <path
         d="M 0,373.445 H 491.969 V 0 H 0 Z"
         transform="translate(-399.39011,-267.74741)"
         id="path27" />
    </clipPath>
    <clipPath
       clipPathUnits="userSpaceOnUse"
       id="clipPath45">
      <path
         d="M 0,373.445 H 491.969 V 0 H 0 Z"
         transform="translate(-405.28611,-254.73321)"
         id="path45" />
    </clipPath>
    <clipPath
       clipPathUnits="userSpaceOnUse"
       id="clipPath47">
      <path
         d="M 0,373.445 H 491.969 V 0 H 0 Z"
         id="path47" />
    </clipPath>
    <clipPath
       clipPathUnits="userSpaceOnUse"
       id="clipPath49">
      <path
         d="M 0,373.445 H 491.969 V 0 H 0 Z"
         transform="translate(-395.55421,-261.51011)"
         id="path49" />
    </clipPath>
  </defs>
  <g
     id="layer1"
     transform="translate(-110.33125,-184.67917)">
    <g
       id="g1"
       transform="translate(-12.699245,-3.439221)">
      <path
         id="path26"
         d="m 0,0 c -6.492,0 -11.755,-5.263 -11.755,-11.755 0,-6.49 5.263,-11.753 11.755,-11.753 6.492,0 11.755,5.263 11.755,11.753 C 11.755,-5.263 6.492,0 0,0"
         style="fill:#001f60;fill-opacity:1;fill-rule:nonzero;stroke:none"
         transform="matrix(0.35277776,0,0,-0.35277776,127.17815,188.11875)"
         clip-path="url(#clipPath27)" />
      <path
         id="path44"
         d="M 0,0 C 0,0.352 -0.029,0.702 -0.099,1.048 -0.168,1.386 -0.275,1.712 -0.438,2.017 -0.698,2.5 -1.066,2.874 -1.561,3.117 -1.867,3.268 -2.192,3.354 -2.531,3.388 -2.864,3.423 -3.196,3.416 -3.525,3.351 -3.945,3.268 -4.319,3.09 -4.642,2.807 -4.84,2.632 -5.005,2.429 -5.151,2.209 -5.16,2.196 -5.17,2.184 -5.179,2.17 -5.182,2.171 -5.185,2.172 -5.188,2.174 v 1.051 c -0.061,0.01 -2.494,0.007 -2.524,-0.002 0.024,-2.531 0.002,-5.062 -0.003,-7.592 0.052,-0.01 2.491,-0.008 2.528,0.003 v 0.057 4.215 c 0,0.138 0.007,0.276 0.034,0.412 0.034,0.173 0.112,0.328 0.209,0.473 0.169,0.255 0.392,0.445 0.685,0.548 0.214,0.075 0.434,0.089 0.658,0.06 0.383,-0.049 0.666,-0.242 0.848,-0.583 0.074,-0.139 0.124,-0.287 0.158,-0.441 0.047,-0.21 0.066,-0.424 0.066,-0.639 10e-4,-0.728 0,-1.456 0,-2.183 v -1.865 -0.057 c 0.011,-0.003 0.015,-0.006 0.02,-0.006 0.827,0 1.655,0 2.482,0 0.006,0 0.012,0.001 0.018,0.003 0.002,0 0.003,10e-4 0.004,0.003 0.001,10e-4 0.002,0.002 0.005,0.006 v 0.056 C 0,-2.871 0,-1.436 0,0"
         style="fill:#ffffff;fill-opacity:1;fill-rule:nonzero;stroke:none"
         transform="matrix(0.35277776,0,0,-0.35277776,129.25813,192.70987)"
         clip-path="url(#clipPath45)" />
      <path
         id="path46"
         d="m 393.647,250.361 h 2.521 v 7.6 h -2.521 z"
         style="fill:#ffffff;fill-opacity:1;fill-rule:nonzero;stroke:none"
         transform="matrix(0.35277776,0,0,-0.35277776,-13.717799,282.57409)"
         clip-path="url(#clipPath47)" />
      <path
         id="path48"
         d="M 0,0 C -0.2,0.086 -0.412,0.118 -0.632,0.119 -0.82,0.118 -1.008,0.092 -1.189,0.028 -1.512,-0.086 -1.762,-0.287 -1.92,-0.595 c -0.124,-0.242 -0.163,-0.501 -0.128,-0.769 0.055,-0.438 0.277,-0.766 0.666,-0.978 0.185,-0.1 0.385,-0.15 0.594,-0.164 0.238,-0.015 0.473,0.005 0.699,0.084 0.335,0.118 0.591,0.328 0.746,0.651 0.132,0.273 0.16,0.561 0.095,0.857 C 0.657,-0.483 0.408,-0.175 0,0"
         style="fill:#ffffff;fill-opacity:1;fill-rule:nonzero;stroke:none"
         transform="matrix(0.35277776,0,0,-0.35277776,125.82493,190.31913)"
         clip-path="url(#clipPath49)" />
    </g>
  </g>
</svg>
