<?xml version="1.0" encoding="UTF-8" standalone="no"?>
<!-- Created with Inkscape (http://www.inkscape.org/) -->

<svg
   width="8.29531mm"
   height="8.2938175mm"
   viewBox="0 0 8.29531 8.2938175"
   version="1.1"
   id="svg1"
   xmlns="http://www.w3.org/2000/svg"
   xmlns:svg="http://www.w3.org/2000/svg">
  <defs
     id="defs1">
    <clipPath
       clipPathUnits="userSpaceOnUse"
       id="clipPath43">
      <path
         d="M 0,373.445 H 491.969 V 0 H 0 Z"
         transform="translate(-375.01611,-252.41931)"
         id="path43" />
    </clipPath>
  </defs>
  <g
     id="layer1"
     transform="translate(-110.33125,-184.67917)">
    <path
       id="path42"
       d="m 0,0 c -0.11,-1.396 -0.432,-2.125 -1.986,-2.802 -0.785,-0.343 -1.591,-0.329 -2.41,-0.121 -2.527,0.642 -4.715,1.861 -6.482,3.799 -0.923,1.013 -1.776,2.081 -2.442,3.283 -0.468,0.841 -0.777,1.737 -0.735,2.72 0.046,1.068 0.44,1.982 1.232,2.713 0.326,0.301 0.699,0.413 1.35,0.41 0.1,0 0.2,10e-4 0.3,0 0.295,-0.004 0.522,-0.125 0.641,-0.402 0.315,-0.734 0.626,-1.469 0.936,-2.205 C -9.498,7.162 -9.405,6.927 -9.311,6.691 -9.229,6.485 -9.236,6.275 -9.366,6.098 -9.579,5.808 -9.8,5.521 -10.041,5.254 -10.517,4.726 -10.538,4.644 -10.152,4.042 -9.092,2.39 -7.7,1.122 -5.87,0.363 c 0.568,-0.235 0.792,-0.186 1.172,0.299 0.237,0.302 0.457,0.617 0.688,0.924 0.285,0.379 0.573,0.473 1.005,0.273 0.9,-0.414 1.788,-0.852 2.683,-1.277 C -0.072,0.463 0.02,0.255 0,0 m 2.472,10.305 c -1.63,2.326 -3.834,3.862 -6.571,4.624 -0.874,0.244 -1.767,0.362 -2.677,0.393 -2.056,0.069 -4.001,-0.352 -5.81,-1.319 -3.162,-1.691 -5.176,-4.292 -6.037,-7.775 -0.187,-0.753 -0.29,-1.52 -0.291,-2.299 0,-0.104 0.001,-0.61 0.004,-0.713 0.053,-2.256 0.726,-4.313 1.985,-6.178 0.18,-0.267 0.223,-0.484 0.113,-0.795 -0.426,-1.209 -0.82,-2.429 -1.226,-3.644 -0.024,-0.072 -0.044,-0.144 -0.076,-0.253 0.108,0.029 0.186,0.047 0.262,0.071 1.294,0.414 2.589,0.824 3.879,1.247 0.224,0.074 0.399,0.061 0.601,-0.069 1.116,-0.716 2.324,-1.226 3.622,-1.489 0.702,-0.142 1.425,-0.186 2.138,-0.276 0.135,-0.017 0.747,-0.01 0.851,-0.005 3.83,0.173 6.87,1.833 9.148,4.894 1.125,1.512 1.817,3.222 2.081,5.085 0.436,3.084 -0.2,5.939 -1.996,8.501"
       style="fill:#001f60;fill-opacity:1;fill-rule:nonzero;stroke:none"
       transform="matrix(0.35277776,0,0,-0.35277776,117.00369,190.08699)"
       clip-path="url(#clipPath43)" />
  </g>
</svg>
