<?xml version="1.0" encoding="UTF-8" standalone="no"?>
<!-- Created with Inkscape (http://www.inkscape.org/) -->

<svg
   width="8.29531mm"
   height="8.2938175mm"
   viewBox="0 0 8.29531 8.2938175"
   version="1.1"
   id="svg1"
   xmlns="http://www.w3.org/2000/svg"
   xmlns:svg="http://www.w3.org/2000/svg">
  <defs
     id="defs1">
    <clipPath
       clipPathUnits="userSpaceOnUse"
       id="clipPath43">
      <path
         d="M 0,373.445 H 491.969 V 0 H 0 Z"
         transform="translate(-375.01611,-252.41931)"
         id="path43" />
    </clipPath>
    <clipPath
       clipPathUnits="userSpaceOnUse"
       id="clipPath27">
      <path
         d="M 0,373.445 H 491.969 V 0 H 0 Z"
         transform="translate(-399.39011,-267.74741)"
         id="path27" />
    </clipPath>
    <clipPath
       clipPathUnits="userSpaceOnUse"
       id="clipPath45">
      <path
         d="M 0,373.445 H 491.969 V 0 H 0 Z"
         transform="translate(-405.28611,-254.73321)"
         id="path45" />
    </clipPath>
    <clipPath
       clipPathUnits="userSpaceOnUse"
       id="clipPath47">
      <path
         d="M 0,373.445 H 491.969 V 0 H 0 Z"
         id="path47" />
    </clipPath>
    <clipPath
       clipPathUnits="userSpaceOnUse"
       id="clipPath49">
      <path
         d="M 0,373.445 H 491.969 V 0 H 0 Z"
         transform="translate(-395.55421,-261.51011)"
         id="path49" />
    </clipPath>
    <clipPath
       clipPathUnits="userSpaceOnUse"
       id="clipPath29">
      <path
         d="M 0,373.445 H 491.969 V 0 H 0 Z"
         transform="translate(-418.84281,-256.32401)"
         id="path29" />
    </clipPath>
    <clipPath
       clipPathUnits="userSpaceOnUse"
       id="clipPath31">
      <path
         d="M 0,373.445 H 491.969 V 0 H 0 Z"
         transform="translate(-418.85401,-255.34211)"
         id="path31" />
    </clipPath>
    <clipPath
       clipPathUnits="userSpaceOnUse"
       id="clipPath33">
      <path
         d="M 0,373.445 H 491.969 V 0 H 0 Z"
         transform="translate(-418.85401,-256.69071)"
         id="path33" />
    </clipPath>
    <clipPath
       clipPathUnits="userSpaceOnUse"
       id="clipPath35">
      <path
         d="M 0,373.445 H 491.969 V 0 H 0 Z"
         transform="translate(-430.61571,-258.3807)"
         id="path35" />
    </clipPath>
    <clipPath
       clipPathUnits="userSpaceOnUse"
       id="clipPath37">
      <path
         d="M 0,373.445 H 491.969 V 0 H 0 Z"
         transform="translate(-434.43951,-258.95681)"
         id="path37" />
    </clipPath>
    <clipPath
       clipPathUnits="userSpaceOnUse"
       id="clipPath39">
      <path
         d="M 0,373.445 H 491.969 V 0 H 0 Z"
         transform="translate(-437.73491,-253.03991)"
         id="path39" />
    </clipPath>
    <clipPath
       clipPathUnits="userSpaceOnUse"
       id="clipPath41">
      <path
         d="M 0,373.445 H 491.969 V 0 H 0 Z"
         transform="translate(-461.93411,-267.74741)"
         id="path41" />
    </clipPath>
    <clipPath
       clipPathUnits="userSpaceOnUse"
       id="clipPath51">
      <path
         d="M 0,373.445 H 491.969 V 0 H 0 Z"
         transform="translate(-460.56101,-258.06131)"
         id="path51" />
    </clipPath>
  </defs>
  <g
     id="layer1"
     transform="translate(-110.33125,-184.67917)">
    <g
       id="g1"
       transform="translate(-11.111745,3.439939)">
      <path
         id="path40"
         d="m 0,0 c -6.492,0 -11.755,-5.263 -11.755,-11.755 0,-6.49 5.263,-11.753 11.755,-11.753 6.492,0 11.755,5.263 11.755,11.753 C 11.755,-5.263 6.492,0 0,0"
         style="fill:#001f60;fill-opacity:1;fill-rule:nonzero;stroke:none"
         transform="matrix(0.35277776,0,0,-0.35277776,125.59065,181.23959)"
         clip-path="url(#clipPath41)" />
      <path
         id="path50"
         d="M 0,0 3.539,-2.038 0,-4.076 Z M -3.491,2.56 C -4.554,2.476 -5.358,1.611 -5.409,0.546 c -0.043,-0.877 -0.083,-1.887 -0.083,-2.584 0,-0.705 0.041,-1.73 0.084,-2.614 0.052,-1.051 0.836,-1.91 1.885,-2.007 1.16,-0.107 2.838,-0.215 4.896,-0.215 2.052,0 3.728,0.107 4.887,0.214 1.052,0.098 1.839,0.962 1.89,2.017 0.044,0.931 0.088,1.997 0.088,2.605 0,0.602 -0.043,1.652 -0.087,2.576 C 8.1,1.607 7.295,2.477 6.229,2.56 5.086,2.649 3.439,2.737 1.373,2.737 -0.698,2.737 -2.349,2.649 -3.491,2.56"
         style="fill:#ffffff;fill-opacity:1;fill-rule:evenodd;stroke:none"
         transform="matrix(0.35277776,0,0,-0.35277776,125.10625,184.65663)"
         clip-path="url(#clipPath51)" />
    </g>
  </g>
</svg>
